<svg xmlns="http://www.w3.org/2000/svg" width="20" height="20" fill="#ffff" viewBox="0 0 552.77 552.77" xml:space="preserve"><path d="M17.95 528.854h71.861c9.914 0 17.95-8.037 17.95-17.951V196.8c0-9.915-8.036-17.95-17.95-17.95H17.95C8.035 178.85 0 186.885 0 196.8v314.103c0 9.913 8.035 17.951 17.95 17.951m0-405.225h71.861c9.914 0 17.95-8.036 17.95-17.95V41.866c0-9.914-8.036-17.95-17.95-17.95H17.95C8.035 23.916 0 31.952 0 41.866v63.813c0 9.914 8.035 17.95 17.95 17.95m507.782 91.653q-15.145-19.938-44.676-32.791-29.532-12.844-65.197-12.846-72.402-.002-122.699 55.27c-6.672 7.332-11.523 5.729-11.523-4.186V196.8c0-9.915-8.037-17.95-17.951-17.95h-64.192c-9.915 0-17.95 8.035-17.95 17.95v314.103c0 9.914 8.036 17.951 17.95 17.951h71.861c9.915 0 17.95-8.037 17.95-17.951V401.666q0-68.263 8.244-93.574c5.494-16.873 15.66-30.422 30.488-40.649 14.83-10.227 31.574-15.343 50.24-15.343q21.858 0 37.393 10.741c10.355 7.16 17.834 17.19 22.436 30.104q6.905 19.367 6.904 85.33v132.627c0 9.914 8.035 17.951 17.949 17.951h71.861c9.914 0 17.949-8.037 17.949-17.951V333.02q-.001-47.169-5.941-72.48c-5.94-25.311-10.992-31.959-21.096-45.258"/></svg>